<?xml version="1.0" encoding="UTF-8" standalone="no"?>
<!DOCTYPE svg PUBLIC "-//W3C//DTD SVG 1.1//EN" "http://www.w3.org/Graphics/SVG/1.1/DTD/svg11.dtd">
<svg width="100%" height="100%" viewBox="0 0 953 582" version="1.1" xmlns="http://www.w3.org/2000/svg" xmlns:xlink="http://www.w3.org/1999/xlink" xml:space="preserve" xmlns:serif="http://www.serif.com/" style="fill-rule:evenodd;clip-rule:evenodd;stroke-linejoin:round;stroke-miterlimit:2;">
    <g id="Fundo">
        <path d="M627.518,14.631C622.922,14.386 614.532,12.692 604.888,19.945C596.928,25.931 596.634,35.948 596.588,37.501C596.289,47.662 596.549,460.7 596.572,497.5C596.607,553.772 594.922,557.958 606.731,566.173C615.434,572.227 633.413,571.055 628.742,569.2C627.485,568.701 619.545,565.547 617.617,556.473C616.337,550.45 616.785,550.384 616.859,479.502C616.941,401.101 616.832,400.953 617.469,400.432C617.756,400.197 618.269,400.424 618.556,400.189C724.956,431.249 806.043,310.816 737.1,224.826C717.606,200.512 676.145,176.238 627.564,186.787C622.483,187.891 622.642,188.18 617.512,189.211C616.865,187.193 616.928,187.191 616.91,90.501C616.899,35.203 616.276,35.158 617.235,30.451C620.093,16.424 628.608,16.175 650.503,14.538C831.521,1.004 979.352,169.479 942.53,349.507C915.252,482.876 795.526,581.309 653.485,572.721C633.922,571.538 633.17,569.332 629.012,573.042C620.577,580.568 619.297,579.566 555.5,579.564C32.899,579.555 32.804,579.767 27.476,578.6C16.82,576.267 5.099,564.524 4.818,550.491C4.766,547.894 4.619,34.334 4.915,32.542C10.233,0.393 39.411,5.117 55.499,4.981C87.559,4.712 404.179,4.956 434.499,4.98C614.913,5.119 615.241,4.23 622.61,7.248C623.003,7.408 634.444,13.171 628.566,14.691L627.518,14.631Z" style="fill:rgb(23,23,23);"/>
        <path d="M618.538,195.817C621.088,195.036 636.222,190.405 651.494,190.768C753.074,193.183 791.418,314.753 718.105,375.026C670.185,414.423 617.751,393.635 617.496,393.562C616.202,389.394 616.899,389.269 616.852,303.502C616.847,295.105 616.796,201.082 616.945,198.529C617.044,196.85 617.43,197.048 618.538,195.817Z" style="fill:rgb(193,143,67);"/>
        <path d="M465.917,244.549C465.302,247.951 462.702,277.215 429.554,287.666C425.426,288.968 418.817,291.052 375.505,290.2C372.434,290.139 373.126,288.453 373.065,257.501C373.054,251.983 372.932,190.341 372.997,188.525C373.073,186.364 375.226,186.334 375.492,186.33C424.041,185.66 438.606,185.815 455.311,205.658C468.131,220.885 466.218,241.338 465.917,244.549Z" style="fill:rgb(252,252,252);"/>
        <path d="M478.509,398.488C476.274,396.868 462.99,387.241 459.895,369.433C449.956,312.229 524.526,292.715 547.082,338.685C566.23,377.708 525.032,426.611 478.509,398.488Z" style="fill:rgb(203,153,71);"/>
        <path d="M77.28,396.5C77.258,315.512 77.298,315.543 77.322,315.453C77.937,313.115 79.011,313.711 107.511,314.159C163.08,315.033 171.416,391.896 117.413,404.086C108.51,406.096 78.802,405.062 78.323,404.874C77.338,404.487 77.285,397.175 77.28,396.5Z" style="fill:rgb(203,154,72);"/>
        <path d="M135.498,290.141C131.245,290.143 122.75,290.974 122.658,288.482C122.635,287.85 122.542,188.616 122.75,187.554C123.534,183.538 126.423,185.864 163.351,218.674C184.529,237.49 185.217,239.512 186.421,237.459C186.566,237.211 185.724,187.946 186.823,186.82C188.035,185.578 188.289,185.846 208.506,186.373C212.206,186.47 210.82,188.757 211.048,237.499C211.067,241.577 211.277,286.612 211.046,288.473C210.278,294.635 202.041,284.815 175.911,263.012C173.779,261.233 156.949,247.19 149.69,240.273C145.633,236.406 146.911,242.242 146.913,242.501C146.941,246.186 147.23,283.732 146.818,288.564C146.625,290.825 138.037,290.134 135.498,290.141Z" style="fill:rgb(252,252,252);"/>
        <path d="M509.067,260.503C509.098,262.265 507.958,266.827 511.487,266.873C548.68,267.362 551.306,265.294 551.331,269.503C551.442,288.258 551.614,289.99 549.476,290.118C549.274,290.13 485.765,290.2 485.537,290.141C483.054,289.503 483.958,288.229 483.854,232.496C483.77,187.246 484.034,187.108 484.598,186.644C485.267,186.093 493.801,186.307 546.5,186.343C552.225,186.346 550.834,188.787 550.841,194.499C550.848,201.19 551.431,208.928 549.448,209.252C545.015,209.978 509.946,208.057 509.168,210.361C509.151,210.411 508.29,225.238 509.758,226.099C511.846,227.324 544.385,224.773 545.209,227.589C545.37,228.136 545.61,246.255 545.026,247.191C543.685,249.336 509.352,245.865 509.131,249.411C509.064,250.485 509.067,259.616 509.067,260.503Z" style="fill:rgb(252,252,252);"/>
        <path d="M270.471,269.18C271.282,269.046 277.844,267.962 279.654,264.592C286.142,252.514 263.684,249.595 251.436,244.653C221.739,232.671 226.683,196.051 253.638,186.93C284.558,176.467 307.531,201.403 304.741,207.634C304.136,208.985 303.773,208.594 288.353,216.21C284.772,217.979 283.638,219.045 281.117,214.73C276.194,206.299 262.761,206.378 259.367,211.398C251.515,223.014 273.95,226.785 286.41,231.721C317.338,243.973 311.98,279.305 286.311,289.023C255.916,300.529 228.816,278.381 229.756,268.531C229.916,266.856 250.304,256.559 251.461,257.545C255.524,261.005 252.099,268.852 270.471,269.18Z" style="fill:rgb(252,252,252);"/>
        <path d="M469.356,344.442C469.956,343.235 470.363,341.939 470.963,340.733C489.677,303.109 552.882,320.46 543.653,368.532C534.13,418.141 450.373,405.634 469.356,344.442Z" style="fill:rgb(23,23,23);"/>
        <path d="M84.663,394.498C84.798,322.569 84.167,321.981 85.459,321.429C87.73,320.458 106.669,321.148 108.512,321.215C133.889,322.14 150.599,344.906 144.805,369.567C136.874,403.328 97.808,398.304 92.496,398.317C87.211,398.33 85.065,399.779 84.663,394.498Z" style="fill:rgb(23,23,23);"/>
        <path d="M331.503,290.145C326.482,289.642 326.314,289.887 325.996,289.257C324.69,286.674 325.465,196.562 325.535,188.501C325.564,185.107 327.104,186.304 330.503,186.306C344.739,186.315 349.925,185.892 350.437,187.523C350.863,188.878 350.611,288.27 350.598,288.517C350.476,290.711 345.236,290.133 331.503,290.145Z" style="fill:rgb(252,252,252);"/>
        <path d="M617.512,189.211C622.642,188.18 622.483,187.891 627.564,186.787C676.145,176.238 717.606,200.512 737.1,224.826C806.043,310.816 724.956,431.249 618.556,400.189C617.852,399.381 617.495,399.727 617.229,398.667C616.57,396.051 616.209,395.946 617.496,393.562C617.751,393.635 670.185,414.423 718.105,375.026C791.418,314.753 753.074,193.183 651.494,190.768C636.222,190.405 621.088,195.036 618.538,195.817C618.264,195.574 617.734,195.854 617.461,195.611C616.466,194.728 617.417,189.714 617.512,189.211Z" style="fill:rgb(247,246,245);"/>
        <path d="M94.498,290.144C82.795,290.161 77.372,290.725 77.264,288.541C77.184,286.906 77.306,220.307 77.234,193.5C77.233,192.925 77.217,186.765 78.477,186.422C78.632,186.38 99.708,186.019 100.457,186.577C101.294,187.2 101.4,187.464 101.28,277.501C101.277,279.72 101.368,288.591 101.034,289.261C100.685,289.959 100.469,289.679 94.498,290.144Z" style="fill:rgb(252,252,252);"/>
        <path d="M702.408,46.255C751.352,51.98 807.171,81.945 840.295,114.71C959.82,232.937 934.253,409.021 810.348,498.278C782.431,518.388 740.363,537.419 697.409,542.917C697.466,542.447 697.458,541.97 697.514,541.5C697.732,539.688 730.329,538.095 770.292,519.086C777.808,515.511 819.688,495.59 852.948,455.887C980.084,304.121 891.2,87.931 716.412,50.747C704.334,48.178 702.969,49.383 702.408,46.255Z" style="fill:rgb(232,232,232);"/>
        <path d="M406.501,266.913C400.918,266.823 398.231,269.065 398.167,263.501C398.118,259.258 397.576,212.595 398.411,210.457C399.44,207.82 441.963,204.913 440.35,239.493C440.335,239.814 440.385,250.247 432.313,258.305C422.322,268.279 408.242,266.877 406.501,266.913Z" style="fill:rgb(22,22,22);"/>
        <path d="M884.809,267.462C898.098,384.501 821.021,492.554 696.442,513.978C696.198,514.02 688.819,515.289 693.622,512.707C694.207,512.393 745.132,506.844 792.173,472.063C924.175,374.463 909.895,166.211 751.691,93.114C720.452,78.68 690.618,77.186 695.579,74.744C696.892,74.098 790.281,85.162 848.135,170.744C856.774,183.524 878.373,217.277 884.809,267.462Z" style="fill:rgb(230,230,230);"/>
        <path d="M421.323,331.614C422.141,333.049 423.189,334.345 424.008,335.781C427.515,341.934 422.97,341.73 420.475,342.233C416.923,342.948 415.298,325.623 391.462,320.732C354.836,313.218 329.09,361.857 358.853,390.132C373.032,403.603 405.623,404.344 418.09,379.305C420.087,375.294 421.193,376.009 425.31,377.809C429.388,379.591 409.384,415.393 370.472,404.595C324.126,391.735 328.509,314.093 384.49,312.952C393.723,312.764 411.151,316.528 421.323,331.614Z" style="fill:rgb(204,154,72);"/>
        <path d="M683.744,98.631C685.86,98.37 687.018,96.789 688.398,100.588C690.263,105.719 718.77,100.88 769.6,134.344C844.624,183.735 891.869,301.67 820.188,405.292C794.169,442.905 748.914,475.045 698.477,485.248C697.615,485.423 687.963,487.375 687.683,487.35C676.884,486.37 704.534,483.303 723.679,475.95C880.042,415.899 887.638,223.404 772.208,138.899C739.6,115.026 702.059,106.876 695.518,105.456C692.764,104.858 686.795,104.112 686.476,101.497C686.328,100.279 685.976,100.519 684.751,100.363C684.415,99.786 684.079,99.208 683.744,98.631Z" style="fill:rgb(227,227,227);"/>
        <path d="M278.487,399.366C280.11,399.03 293.109,396.34 296.021,388.326C306.789,358.688 251.847,367.209 244.879,344.388C234.071,308.993 294.899,302.197 302.692,331.443C303.314,333.776 297.346,338.001 295.212,332.61C288.399,315.402 256.453,316.552 251.985,331.665C243.904,358.997 295.128,349.376 303.754,374.419C314.599,405.906 260.498,419.179 243.972,392.201C237.5,381.634 247.576,382.052 248.01,382.864C253.006,392.208 254.754,400.22 278.487,399.366Z" style="fill:rgb(203,154,71);"/>
        <path d="M681.721,128.584C681.854,128.573 682.31,127.363 683.513,128.433C688.748,133.088 716.703,132.227 757.162,161.968C821.737,209.438 855.232,313.695 787.111,399.165C737.317,461.64 648.092,465.326 690.589,455.894C825.824,425.878 867.885,254.091 757.221,164.846C725.342,139.137 684.376,131.936 683.85,131.309C682.688,129.922 682.851,129.895 681.721,128.584Z" style="fill:rgb(224,224,224);"/>
        <path d="M671.526,276.259C703.671,282.366 684.09,325.228 659.682,310.22C646.979,302.41 647.716,276.192 671.526,276.259Z" style="fill:rgb(23,23,23);"/>
        <path d="M675.384,432.767C673.908,428.68 676.587,429.856 678.696,429.896C685.886,430.032 774.73,409.309 788.919,313.55C795.015,272.403 780.235,223.167 742.843,191.11C703.036,156.983 671.581,161.638 679.689,157.759C681.983,156.662 746.272,170.462 778.005,231.754C809.181,291.966 793.931,364.482 734.784,407.916C709.745,426.303 682.707,431.354 680.493,431.635C677.806,431.975 678.043,433.342 675.384,432.767Z" style="fill:rgb(219,219,219);"/>
        <path d="M200.875,400.503C200.382,405.733 199.338,407.194 194.617,405.057C193.2,404.415 193.498,403.768 193.519,319.5C193.519,318.893 192.689,314.3 195.478,314.175C196.829,314.114 200.8,313.377 200.855,316.488C200.941,321.342 200.89,390.017 200.875,400.503Z" style="fill:rgb(204,149,67);"/>
        <path d="M221.502,455.059C209.437,454.93 209.521,455.021 197.499,455.045C188.06,455.065 88.588,455.268 79.511,455.073C76.672,455.012 76.937,452.738 78.454,452.352C79.589,452.063 203.616,452.257 214.5,452.274C282.288,452.38 282.455,451.969 283.28,452.73C286.914,456.085 281,455.019 221.502,455.059Z" style="fill:rgb(211,163,74);"/>
        <path d="M348.495,455.081C341.77,454.058 348.278,452.289 348.501,452.287C364.704,452.196 549.584,451.148 551.044,452.879C554.22,456.645 548.671,455.145 489.5,455.055C478.22,455.038 380.901,454.89 348.495,455.081Z" style="fill:rgb(210,162,75);"/>
        <path d="M646.52,545.009C647.197,545.045 650.273,545.124 650.599,545.132C652.109,545.171 652.183,546.261 653.261,545.275C658.631,540.366 654.55,549.37 654.482,549.47C654.083,550.05 649.96,549.877 650.855,552.494C651.39,554.058 651.556,554.034 650.995,555.66C650.276,557.746 656.257,558.485 656.047,555.524C655.567,548.734 661.938,554.891 661.015,557.037C659.894,559.645 659,559.512 659.728,562.295C659.785,562.511 660.487,561.984 661.423,564.5C661.515,564.747 661.9,565.781 658.58,566.169C657.064,566.346 656.224,566 656.698,567.5C657.328,569.496 657.767,569.511 657.591,569.505C657.405,569.499 657.57,569.104 655.394,568.712C654.793,568.603 653.995,568.77 653.61,568.296C652.859,567.372 655.295,567.536 654.435,566.737C652.9,565.31 652.288,567.569 649.5,566.097C647.77,565.184 645.808,565.66 647.336,563.432C648.225,562.137 647.518,561.953 647.637,561.919C648.764,561.592 650.066,562.027 651.14,561.552C651.219,561.517 650.542,559.146 650.178,558.833C649.056,557.868 647.527,559.035 647.665,556.566C647.88,552.723 649.374,550.914 647.443,550.627C645.965,550.407 646.265,549.975 646.121,548.514C646.062,547.916 646.476,545.288 646.52,545.009Z" style="fill:rgb(23,23,23);"/>
        <path d="M311.383,447.241C321.961,444.233 321.95,453.974 321.573,455.516C318.58,467.755 298.326,456.205 311.383,447.241Z" style="fill:rgb(205,155,74);"/>
        <path d="M671.826,433.633C671.021,440.569 671.589,441.112 669.333,442.362C667.668,443.284 669.174,444.597 667.429,445.275C664.538,446.399 664.666,439.175 665.437,438.434C665.566,438.309 665.793,438.803 667.462,437.471C668.992,436.251 667.722,435.132 669.501,434.488C670.687,434.059 670.628,434.074 671.826,433.633Z" style="fill:rgb(23,24,23);"/>
        <path d="M683.702,46.743C682.821,52.204 680.615,50.959 680.438,50.566C679.041,47.458 680.29,46.98 683.702,46.743Z" style="fill:rgb(23,23,23);"/>
    </g>
</svg>
