<?xml version="1.0" encoding="UTF-8" standalone="no"?>
<!DOCTYPE svg PUBLIC "-//W3C//DTD SVG 1.1//EN" "http://www.w3.org/Graphics/SVG/1.1/DTD/svg11.dtd">
<svg width="100%" height="100%" viewBox="0 0 390 392" version="1.1" xmlns="http://www.w3.org/2000/svg" xmlns:xlink="http://www.w3.org/1999/xlink" xml:space="preserve" xmlns:serif="http://www.serif.com/" style="fill-rule:evenodd;clip-rule:evenodd;stroke-linejoin:round;stroke-miterlimit:2;">
    <g transform="matrix(1,0,0,1,-63.646152,-41.065852)">
        <g id="Fundo">
            <g transform="matrix(1,0,0,1,61,39)">
                <path d="M235.887,235.113C238.887,238.113 241.887,241.113 244.887,244.113C272.558,271.776 300.228,299.439 327.898,327.102L330.898,330.102L334.37,333.5C341.354,340.482 341.295,340.495 341.9,341.1L343.9,343.1C345.725,344.9 347.549,346.7 349.374,348.5C392.203,391.316 392.271,391.76 391.847,392.708C391.516,393.448 391.18,393.339 307.5,393.235C232.397,393.142 231.962,393.497 228.838,391.07C221.069,385.035 221.755,384.342 141.838,304.163C120.735,282.992 118.268,279.589 115.433,281.417C114.851,281.793 50.156,346.231 30.025,366.5L27.734,368.734C26.476,369.993 20.736,375.736 12.032,384.5L8.738,387.738C4.663,391.727 4.821,391.934 4.341,392.042C3.585,392.212 2.575,392.072 2.65,382.501C2.986,339.971 3.056,340.083 3.063,297.5C3.114,4.781 2.82,3.97 4.679,2.928C7.221,1.503 114.715,2.253 115.521,2.344C119.04,2.741 118.584,4.408 118.529,38.5C118.457,82.791 118.984,83.283 114.952,89.777C111.964,94.591 112.095,94.66 78.021,150.208C72.524,159.17 64.757,169.588 72.234,162.117C75.232,159.123 74.555,158.489 108.986,123.984C151.283,81.596 151.186,81.545 154.929,77.929C182.719,51.09 228.635,3.515 231.556,2.832C233.387,2.403 282.189,2.099 321.501,2.222C391.519,2.443 392.084,2.532 392.129,3.476C392.202,4.986 260.321,135.8 200.276,196.276C152.564,244.332 151.311,242.992 147.678,247.616C142.531,254.166 157.741,243.374 158.216,243.063C162.222,240.437 194.782,219.094 208.698,210.884C211.22,209.396 212.628,211.874 235.887,235.113Z" style="fill:rgb(35,25,23);fill-opacity:1;"/>
                <path d="M235.887,235.113C240.508,239.637 240.415,239.582 244.887,244.113C241.887,241.113 238.887,238.113 235.887,235.113Z" style="fill:rgb(16,11,10);fill-opacity:0.46;"/>
                <path d="M343.9,343.1L344.374,343.5L349.374,348.5C347.549,346.7 345.725,344.9 343.9,343.1Z" style="fill:rgb(17,12,11);fill-opacity:0.48;"/>
                <path d="M327.898,327.102L331.37,330.5L330.898,330.102L327.898,327.102Z" style="fill:rgb(17,12,11);fill-opacity:0.48;"/>
                <path d="M330.898,330.102L331.37,330.5L334.37,333.5L330.898,330.102Z" style="fill:rgb(17,12,11);fill-opacity:0.48;"/>
                <path d="M12.032,384.5L8.738,387.738L12.032,384.5Z" style="fill:rgb(19,13,12);fill-opacity:0.49;"/>
                <path d="M341.9,341.1L344.374,343.5L343.9,343.1L341.9,341.1Z" style="fill:rgb(17,12,11);fill-opacity:0.48;"/>
                <path d="M30.025,366.5L27.734,368.734L30.025,366.5Z" style="fill:rgb(19,13,12);fill-opacity:0.49;"/>
            </g>
        </g>
    </g>
</svg>
